<svg xmlns="http://www.w3.org/2000/svg" xmlns:xlink="http://www.w3.org/1999/xlink" version="1.1" x="0px" y="0px" viewBox="0 0 10 12.5" enable-background="new 0 0 10 10" xml:space="preserve"><g><path d="M7.146,5.014C7.172,4.998,7.208,4.978,7.24,4.962L7.195,4.938C7.184,4.93,7.168,4.934,7.154,4.941   c-0.01,0.008-0.014,0.021-0.014,0.037L7.146,5.014z"/><g><path d="M3.071,5.389C3.047,5.421,3.003,5.425,2.975,5.4L2.592,5.11C2.563,5.087,2.56,5.042,2.58,5.014l0,0    c0.023-0.027,0.068-0.036,0.097-0.012l0.382,0.294C3.087,5.316,3.091,5.36,3.071,5.389L3.071,5.389z"/></g><g><path d="M6.93,5.389C6.954,5.421,6.994,5.425,7.025,5.4l0.379-0.29c0.033-0.023,0.037-0.068,0.013-0.097l0,0    C7.396,4.986,7.354,4.977,7.324,5.001L6.941,5.296C6.914,5.316,6.91,5.36,6.93,5.389L6.93,5.389z"/></g><g><path d="M3.49,4.016c-0.013,0-0.024,0.004-0.024,0.016L3.445,4.12C3.441,4.132,3.45,4.145,3.462,4.145c0.004,0,0.004,0,0.004,0    c0.012,0,0.021-0.004,0.024-0.017l0.016-0.084C3.51,4.031,3.502,4.02,3.49,4.016z"/><path d="M3.538,3.802h0.004c0.013,0,0.021-0.008,0.021-0.021l0.004-0.008l0.04,0.004c0.013,0,0.024-0.008,0.024-0.02    c0-0.013-0.008-0.024-0.02-0.024l-0.06-0.004c-0.013,0-0.021,0.008-0.024,0.016L3.522,3.773C3.519,3.786,3.526,3.798,3.538,3.802z    "/><path d="M3.869,3.794L3.86,3.834C3.856,3.846,3.864,3.858,3.877,3.858c0,0.004,0.004,0.004,0.004,0.004    c0.008,0,0.021-0.008,0.021-0.021l0.016-0.064c0-0.004,0-0.012-0.004-0.016C3.91,3.757,3.905,3.754,3.896,3.754L3.873,3.749    c-0.013,0-0.021,0.009-0.021,0.021C3.849,3.781,3.856,3.794,3.869,3.794z"/><path d="M3.695,3.781L3.784,3.79l0,0c0.012,0,0.024-0.009,0.024-0.021S3.8,3.745,3.788,3.745L3.699,3.737    c-0.012,0-0.023,0.008-0.023,0.021C3.676,3.773,3.684,3.781,3.695,3.781z"/><path d="M3.824,4.076C3.813,4.071,3.8,4.08,3.8,4.092l-0.012,0.04L3.72,4.128c-0.012,0-0.024,0.008-0.024,0.021    c0,0.012,0.008,0.024,0.021,0.024l0.089,0.004l0,0c0.012,0,0.02-0.004,0.023-0.017L3.841,4.1C3.845,4.088,3.837,4.076,3.824,4.076    z"/><path d="M3.631,4.124L3.542,4.12C3.53,4.116,3.519,4.128,3.519,4.141c0,0.012,0.008,0.02,0.02,0.02l0.089,0.008c0,0,0,0,0.004,0    c0.008,0,0.021-0.008,0.021-0.02C3.651,4.136,3.644,4.124,3.631,4.124z"/><path d="M4.167,3.951c-0.004-0.021-0.02-0.036-0.04-0.036C4.046,3.923,3.961,3.923,3.881,3.923c0-0.013-0.008-0.017-0.017-0.021    C3.853,3.898,3.841,3.906,3.841,3.919l0,0c-0.113,0-0.214-0.009-0.303-0.017L3.547,3.87c0-0.012-0.005-0.024-0.017-0.028    c-0.012,0-0.024,0.009-0.028,0.017l-0.008,0.04C3.369,3.887,3.293,3.874,3.289,3.87c-0.021,0-0.041,0.013-0.045,0.032    C3.24,3.923,3.257,3.942,3.276,3.947c0.004,0,0.25,0.04,0.544,0.048v0.012c-0.004,0.009,0.004,0.02,0.017,0.024h0.004    c0.008,0,0.02-0.004,0.02-0.016l0.004-0.021c0.024,0.004,0.049,0.004,0.069,0.004c0.064,0,0.132-0.004,0.197-0.008    C4.15,3.991,4.167,3.971,4.167,3.951z"/></g><g><path d="M6.031,3.83c0.004,0.012,0.013,0.016,0.023,0.016c0,0,0,0,0.004,0c0.012,0,0.021-0.012,0.018-0.023l-0.01-0.042    c0.01-0.004,0.018-0.011,0.018-0.023c0-0.013-0.014-0.021-0.023-0.021L6.039,3.741c-0.008,0-0.016,0-0.016,0.008    C6.02,3.754,6.016,3.762,6.02,3.766L6.031,3.83z"/><path d="M6.329,3.766L6.37,3.762V3.77c0.004,0.011,0.012,0.02,0.024,0.02c0,0,0,0,0.004-0.004c0.013,0,0.021-0.013,0.017-0.024    L6.406,3.733c0-0.012-0.014-0.017-0.021-0.017l-0.06,0.006c-0.013,0-0.022,0.012-0.021,0.023C6.307,3.758,6.313,3.766,6.329,3.766    z"/><path d="M6.217,4.116L6.148,4.12L6.137,4.08C6.132,4.067,6.12,4.06,6.111,4.063c-0.012,0-0.021,0.013-0.021,0.024l0.017,0.061    C6.111,4.16,6.12,4.164,6.128,4.164c0,0,0,0,0.004,0L6.217,4.16c0.016,0,0.024-0.012,0.024-0.024    C6.236,4.124,6.229,4.116,6.217,4.116z"/><path d="M6.148,3.777c0.004,0,0.004,0,0.004,0L6.241,3.77c0.012,0,0.021-0.012,0.021-0.024c-0.005-0.012-0.013-0.02-0.023-0.02    l-0.09,0.007c-0.014,0-0.021,0.012-0.021,0.024C6.128,3.766,6.137,3.777,6.148,3.777z"/><path d="M6.395,4.104L6.307,4.112c-0.014,0-0.024,0.008-0.021,0.023c0,0.009,0.008,0.021,0.021,0.021l0,0l0.088-0.008    c0.013,0,0.023-0.008,0.021-0.021C6.414,4.112,6.406,4.104,6.395,4.104z"/><path d="M6.471,4.02C6.467,4.007,6.454,3.999,6.441,4.003C6.43,4.007,6.426,4.02,6.426,4.031l0.021,0.085    c0,0.012,0.012,0.016,0.021,0.016c0.005,0,0.005,0,0.005,0c0.01-0.004,0.019-0.012,0.019-0.024L6.471,4.02z"/><path d="M6.7,3.846c-0.005-0.02-0.024-0.032-0.044-0.027c-0.073,0.016-0.149,0.032-0.223,0.04V3.846    C6.432,3.834,6.418,3.83,6.406,3.83c-0.012,0.004-0.02,0.016-0.016,0.028v0.008C6.281,3.883,6.178,3.891,6.088,3.895    C6.084,3.891,6.076,3.887,6.066,3.891c-0.004,0-0.008,0.004-0.012,0.008C5.928,3.906,5.838,3.906,5.822,3.906l0,0    c-0.024,0-0.041,0.017-0.041,0.036c0,0.021,0.016,0.041,0.041,0.041l0,0c0.016,0,0.109,0,0.244-0.009L6.07,4.002    C6.076,4.012,6.084,4.02,6.096,4.02H6.1C6.111,4.016,6.12,4.003,6.116,3.991l-0.005-0.02C6.2,3.963,6.303,3.955,6.406,3.938    L6.41,3.942c0,0.013,0.008,0.017,0.021,0.017h0.004c0.012,0,0.02-0.012,0.016-0.024l0,0C6.523,3.923,6.6,3.91,6.672,3.895    C6.691,3.887,6.704,3.866,6.7,3.846z"/></g><path d="M8.876,5.844C8.871,5.836,8.867,5.828,8.855,5.818L7.55,5.127c0.024-0.061,0.017-0.133-0.022-0.189   C7.49,4.89,7.434,4.861,7.373,4.861c-0.044,0-0.085,0.016-0.117,0.04L6.77,4.277c0.232-0.02,0.467-0.045,0.701-0.072v0.233   c0,0.226,0.182,0.41,0.41,0.41c0.227,0,0.406-0.185,0.406-0.41V4.092c0.089-0.016,0.178-0.028,0.268-0.044   C8.563,4.044,8.57,4.039,8.577,4.031c0.004-0.008,0.009-0.021,0.004-0.028L8.469,3.33C8.465,3.326,8.465,3.318,8.461,3.314   C8.452,3.271,8.42,3.161,8.234,3.193c-0.017,0-0.031,0.004-0.045,0.008V3.197c-0.691,0.114-1.385,0.19-2.082,0.23l-0.5-0.64   L5.561,2.823c-0.013-0.02-0.024-0.045-0.037-0.064C5.363,2.501,5.162,2.448,5.021,2.448H4.952c-0.141,0-0.342,0.053-0.5,0.311   c-0.016,0.02-0.024,0.04-0.036,0.061L4.38,2.791L3.877,3.436c-0.443-0.021-0.891-0.057-1.334-0.11l0,0   c-0.044-0.055-0.105-0.093-0.177-0.1c-0.009-0.004-0.02-0.004-0.032-0.004c-0.061,0-0.117,0.021-0.161,0.057   c-0.19-0.025-0.375-0.053-0.565-0.082l0,0C1.6,3.193,1.588,3.193,1.576,3.189C1.387,3.161,1.354,3.278,1.351,3.318   c0,0.004-0.004,0.008-0.004,0.012L1.229,4.003c-0.003,0.02,0.013,0.041,0.033,0.045C1.5,4.088,1.741,4.124,1.983,4.16   C1.967,4.302,2.067,4.426,2.209,4.446c0.012,0,0.024,0.004,0.036,0.004c0.129,0,0.241-0.097,0.258-0.226   c0.238,0.024,0.476,0.049,0.713,0.068L2.741,4.901c-0.032-0.024-0.073-0.04-0.113-0.04c-0.061,0-0.117,0.028-0.153,0.076   c-0.04,0.057-0.048,0.129-0.025,0.19L1.142,5.818c-0.009,0.01-0.013,0.018-0.017,0.025S1.121,5.864,1.129,5.872l0.242,0.455   c0.004,0.008,0.012,0.017,0.02,0.021l0,0l3.09,1.2c0.004,0,0.004,0.004,0.008,0.004h0.004l0,0l0,0c0,0,0.004,0,0.008,0   s0.012-0.004,0.02-0.008l0.427-0.29c0.016-0.012,0.02-0.036,0.008-0.053L3.929,5.68l0.846-1.322c0.044,0,0.088,0,0.133,0   c0.105,0,0.209,0,0.318,0L6.07,5.68L5.041,7.201C5.033,7.218,5.037,7.242,5.053,7.254l0.427,0.29   C5.488,7.548,5.492,7.552,5.5,7.552c0.004,0,0.008,0,0.008,0l0,0l0,0h0.004c0,0,0.004-0.004,0.008-0.004l3.09-1.2l0,0   C8.618,6.344,8.626,6.335,8.63,6.327l0.241-0.455C8.876,5.864,8.88,5.852,8.876,5.844z M7.305,4.962   C7.325,4.945,7.35,4.938,7.373,4.938c0.036,0,0.068,0.017,0.093,0.044c0.036,0.053,0.028,0.125-0.024,0.166l-0.379,0.29   C7.043,5.453,7.02,5.461,6.99,5.461l0,0c-0.036,0-0.068-0.016-0.09-0.044C6.861,5.368,6.869,5.296,6.922,5.256L7.305,4.962z    M6.887,4.885l0.061-0.048c0.008-0.008,0.02-0.004,0.027,0.004c0.008,0.012,0.008,0.024,0,0.032L6.914,4.922   C6.91,4.926,6.9,4.926,6.896,4.926s-0.012,0-0.016-0.009C6.873,4.909,6.873,4.894,6.887,4.885z M7.007,4.788l0.032-0.027   C7.047,4.752,7.063,4.756,7.07,4.765c0.009,0.008,0.005,0.023-0.004,0.032L7.029,4.825C7.025,4.829,7.021,4.829,7.02,4.829   c-0.008,0-0.013-0.004-0.018-0.009C6.994,4.813,6.994,4.797,7.007,4.788z M6.918,4.684l0.036-0.028   C6.962,4.648,6.979,4.648,6.986,4.66C6.994,4.668,6.99,4.68,6.982,4.688L6.945,4.716C6.941,4.72,6.938,4.72,6.934,4.72   c-0.008,0-0.012,0-0.016-0.008C6.91,4.704,6.91,4.691,6.918,4.684z M6.797,4.78l0.064-0.048c0.008-0.008,0.021-0.008,0.029,0.004   c0.008,0.008,0.008,0.02-0.004,0.028L6.825,4.813C6.82,4.816,6.816,4.82,6.813,4.82c-0.008,0-0.013-0.004-0.017-0.008   C6.789,4.801,6.789,4.788,6.797,4.78z M6.789,4.962l0.036-0.024c0.008-0.008,0.021-0.008,0.028,0c0.008,0.012,0.008,0.024,0,0.032   L6.816,4.998C6.813,5.002,6.809,5.002,6.805,5.002c-0.008,0-0.016-0.004-0.02-0.008C6.781,4.986,6.781,4.97,6.789,4.962z    M6.766,4.861L6.732,4.89C6.729,4.894,6.725,4.897,6.717,4.897c-0.005,0-0.013-0.004-0.017-0.008   C6.691,4.877,6.695,4.865,6.704,4.857L6.74,4.829C6.749,4.82,6.762,4.82,6.77,4.833C6.775,4.841,6.775,4.857,6.766,4.861z    M8.215,4.438c0,0.185-0.152,0.334-0.334,0.334c-0.186,0-0.335-0.149-0.335-0.334V4.196c0.222-0.028,0.442-0.061,0.669-0.093V4.438   z M4.517,2.799c0.141-0.226,0.314-0.274,0.435-0.274H5.02c0.121,0,0.294,0.049,0.439,0.274C5.476,2.823,5.488,2.847,5.5,2.871   L5.287,3.04C5.242,2.943,5.158,2.791,5.021,2.791H4.952c-0.133,0-0.218,0.145-0.262,0.241L4.477,2.867   C4.489,2.843,4.501,2.823,4.517,2.799z M4.755,3.081c0.032-0.085,0.104-0.218,0.197-0.218H5.02c0.093,0,0.17,0.137,0.202,0.226   L5.198,3.104l0.274,0.351C5.153,3.464,4.835,3.464,4.517,3.459l0.27-0.35L4.755,3.081z M1.991,4.084   c-0.225-0.032-0.455-0.068-0.68-0.105l0.104-0.597C1.468,3.391,1.52,3.399,1.576,3.407l0,0c0.165,0.028,0.33,0.052,0.491,0.076   L1.991,4.084z M2.431,4.209C2.418,4.302,2.338,4.374,2.245,4.374c-0.008,0-0.017,0-0.024-0.004C2.116,4.357,2.044,4.265,2.06,4.16   l0.089-0.701C2.16,3.367,2.241,3.298,2.334,3.298c0.008,0,0.016,0,0.023,0C2.406,3.307,2.45,3.33,2.482,3.371   c0.028,0.04,0.045,0.088,0.036,0.137L2.431,4.209z M3.301,4.89C3.293,4.894,3.289,4.897,3.28,4.897   c-0.004,0-0.008-0.004-0.012-0.008L3.232,4.861c-0.008-0.004-0.008-0.021,0-0.028C3.236,4.82,3.252,4.82,3.261,4.829l0.036,0.028   C3.305,4.865,3.309,4.877,3.301,4.89z M3.212,4.994C3.208,4.998,3.204,5.002,3.196,5.002c-0.004,0-0.009,0-0.013-0.004L3.147,4.97   C3.14,4.962,3.14,4.949,3.144,4.938c0.008-0.008,0.024-0.008,0.032,0l0.036,0.024C3.22,4.97,3.22,4.986,3.212,4.994z M3.381,5.943   L3.083,6.408L2.06,6.005l0.358-0.188l0.166,0.129l0.334-0.428c0.028,0.012,0.061,0.021,0.093,0.021c0.028,0,0.057-0.004,0.08-0.021   L3.381,5.943z M3.111,4.736C3.119,4.724,3.132,4.724,3.14,4.732L3.2,4.78c0.012,0.008,0.012,0.021,0.004,0.032   C3.2,4.816,3.196,4.82,3.188,4.82c-0.004,0-0.012-0.004-0.016-0.008L3.115,4.765C3.104,4.756,3.104,4.744,3.111,4.736z    M3.119,4.917C3.115,4.926,3.107,4.926,3.104,4.926s-0.013,0-0.017-0.004L3.026,4.873c-0.008-0.008-0.008-0.021,0-0.032   c0.005-0.008,0.021-0.012,0.028-0.004l0.061,0.048C3.128,4.894,3.128,4.909,3.119,4.917z M3.015,4.659   c0.008-0.012,0.024-0.012,0.032-0.004l0.032,0.028c0.012,0.008,0.012,0.021,0.004,0.028C3.079,4.72,3.075,4.72,3.067,4.72   c-0.004,0-0.009,0-0.013-0.004L3.019,4.688C3.011,4.68,3.007,4.668,3.015,4.659z M2.93,4.765c0.008-0.009,0.02-0.013,0.032-0.004   l0.032,0.027C3.007,4.797,3.007,4.813,2.999,4.82C2.994,4.825,2.986,4.829,2.982,4.829s-0.012,0-0.016-0.004L2.935,4.797   C2.922,4.788,2.922,4.772,2.93,4.765z M2.535,4.981C2.56,4.954,2.592,4.938,2.628,4.938c0.024,0,0.049,0.008,0.068,0.024   l0.383,0.294C3.132,5.296,3.14,5.368,3.1,5.417C3.079,5.445,3.043,5.461,3.011,5.461c-0.028,0-0.053-0.008-0.072-0.023l-0.383-0.29   C2.507,5.106,2.495,5.034,2.535,4.981z M1.419,6.259L1.214,5.868l0.343-0.183l0.197,0.396L1.419,6.259z M1.762,5.578l0.729-0.387   c0.008,0.004,0.012,0.008,0.016,0.012l-0.33,0.423L2.35,5.764L1.963,5.973L1.762,5.578z M2.378,6.521   c-0.004,0.012-0.021,0.02-0.032,0.02c-0.004,0-0.008,0-0.012,0L2.048,6.428C2.027,6.42,2.02,6.398,2.027,6.384   c0.008-0.021,0.028-0.028,0.045-0.021l0.285,0.113C2.378,6.48,2.386,6.501,2.378,6.521z M3.974,7.161   C3.97,7.173,3.953,7.182,3.941,7.182c-0.004,0-0.008,0-0.013,0L2.571,6.621c-0.02-0.004-0.028-0.023-0.02-0.044   C2.56,6.561,2.58,6.553,2.596,6.557l1.357,0.562C3.974,7.121,3.981,7.141,3.974,7.161z M3.386,6.527L3.579,6.23l0.342,0.508   L3.386,6.527z M4.875,7.214L4.509,7.463L3.151,5.474C3.155,5.47,3.16,5.465,3.16,5.465C3.216,5.389,3.212,5.288,3.151,5.22   l0.197-0.258L4.875,7.214z M3.735,5.393L3.397,4.897L3.84,4.334C4.025,4.342,4.21,4.35,4.4,4.354L3.735,5.393z M2.515,4.148   l0.077-0.597c1.877,0.214,3.754,0.17,5.635-0.141l0,0C8.283,3.399,8.34,3.391,8.4,3.383L8.501,3.98   C7.316,4.181,6.107,4.285,4.908,4.285C4.11,4.285,3.309,4.237,2.515,4.148z M5.598,4.35c0.185-0.008,0.366-0.016,0.551-0.028   L6.6,4.901L6.266,5.393L5.598,4.35z M5.492,7.463L5.125,7.214l1.521-2.248L6.85,5.22C6.789,5.288,6.785,5.389,6.841,5.465   c0,0,0.005,0.005,0.005,0.009L5.492,7.463z M6.615,6.527L6.076,6.742L6.422,6.23L6.615,6.527z M7.316,6.67L5.955,7.227   C5.951,7.229,5.947,7.229,5.943,7.229c-0.012,0-0.028-0.008-0.032-0.02c-0.009-0.021,0-0.041,0.021-0.049l1.357-0.557   c0.018-0.008,0.036,0.004,0.045,0.021C7.341,6.643,7.333,6.662,7.316,6.67z M7.805,6.473L7.518,6.585c-0.004,0-0.008,0-0.012,0   c-0.016,0-0.027-0.008-0.031-0.021c-0.009-0.021,0-0.041,0.021-0.045l0.284-0.111c0.017-0.01,0.037,0,0.045,0.016   C7.832,6.443,7.82,6.464,7.805,6.473z M6.918,6.408L6.62,5.943l0.284-0.426C6.934,5.534,6.962,5.538,6.99,5.538l0,0   c0.031,0,0.064-0.009,0.089-0.021l0.334,0.426l0.169-0.129l0.359,0.189L6.918,6.408z M8.038,5.973L7.646,5.764l0.178-0.138   L7.49,5.203c0.008-0.004,0.012-0.008,0.016-0.012l0.729,0.387L8.038,5.973z M8.581,6.259L8.243,6.082l0.196-0.395l0.348,0.182   L8.581,6.259z"/><g><path d="M2.233,4.293C2.181,4.289,2.141,4.237,2.148,4.185l0.093-0.701C2.245,3.427,2.298,3.391,2.35,3.399l0,0    c0.057,0.004,0.093,0.056,0.089,0.108L2.346,4.209C2.338,4.261,2.289,4.302,2.233,4.293L2.233,4.293z"/></g></g><text x="0" y="25" fill="#000000" font-size="5px" font-weight="bold" font-family="'Helvetica Neue', Helvetica, Arial-Unicode, Arial, Sans-serif">Created by Clément Branger</text><text x="0" y="30" fill="#000000" font-size="5px" font-weight="bold" font-family="'Helvetica Neue', Helvetica, Arial-Unicode, Arial, Sans-serif">from the Noun Project</text></svg>